<svg xmlns="http://www.w3.org/2000/svg" version="1.1" xmlns:xlink="http://www.w3.org/1999/xlink" width="1000" height="1000"><g clip-path="url(#SvgjsClipPath1690)"><rect width="1000" height="1000" fill="#ffffff"></rect><g transform="matrix(0.6666666666666666,0,0,0.6666666666666666,100,100)"><svg xmlns="http://www.w3.org/2000/svg" version="1.1" xmlns:xlink="http://www.w3.org/1999/xlink" width="1200" height="1200"><svg width="1200" height="1200" xmlns="http://www.w3.org/2000/svg" xmlns:xlink="http://www.w3.org/1999/xlink" version="1.1"><g transform="scale(10.909671866928258) translate(4.998798741234672, 4.9989296330346)">                        <g fill="#111111"> <path xmlns="http://www.w3.org/2000/svg" d="m85.066 57.594c0.45312 0.33594 0.54688 0.98047 0.21094 1.4336-2.0078 2.3867-4.0352 5.3672-6.8164 6.8242-0.91016 0.03125-1.3945-1.2188-0.66406-1.8008 2.1758-1.8672 4.1406-3.9688 5.8398-6.2461 0.33984-0.45313 0.98047-0.54688 1.4297-0.21094zm-11.668 13.734c-6.8633 3.1016-18.961 9.5078-24.254 9.5273h-13.738c-3.6055 0-6.6289 1.3867-8.9805 4.1172l-5.082 5.8984 0.92188 1.5938c0.75 1.3047 0.30469 2.9766-0.99609 3.7266-0.96094 0.41797-5.3711 3.4727-6.4375 3.2969-0.96484 0.003907-1.8984-0.52344-2.3711-1.3633l-9.7344-16.859c-0.76172-1.25-0.28516-3.0234 0.99609-3.7266l5.0781-2.9336c0.68359-0.39453 1.4609-0.44141 2.1641-0.22266 2.0078-2.332 9.3984-10.914 9.3984-10.914 2.5742-2.9922 6.0234-4.5742 9.9727-4.5742h20.836c4.8398-0.15234 7.7734 5.9414 4.7188 9.6289 3.5625-0.53906 6.9141-1.9688 14.004-5.1055 5.2383-2.207 8.6641 5.5156 3.5039 7.9102zm-52.902 22.16-1.2812-2.2227-8.4531-14.641c-0.19141-0.32422-0.60547-0.4375-0.93359-0.25l-5.0781 2.9336c-0.31641 0.17188-0.4375 0.62109-0.25 0.92969l9.7383 16.867c0.17578 0.31641 0.61719 0.43359 0.92969 0.25l5.082-2.9336c0.32031-0.1875 0.43359-0.60547 0.24609-0.93359zm53.238-27.039c-0.50781-1.1484-1.8555-1.668-3.0039-1.1641-10.09 4.4609-13.031 5.625-19.559 5.5469l-12.391 0.003907c-1.332-0.003907-1.3438-2.043 0-2.0469 0.097656 0.003907 12.309-0.003906 12.395 0 5.1562-0.089843 5.1602-7.7578 0-7.8516h-20.836c-3.3828 0-6.2148 1.3008-8.4219 3.8633l-9.3516 10.863 7.6953 13.332 4.6133-5.3555c2.7227-3.1602 6.3633-4.832 10.531-4.832h13.734c3.7656 0 12.863-4.3477 18.883-7.2266 2.5-1.6016 6.7539-1.7383 5.7109-5.1328zm23.809-48.891c-0.23828 0.51562-0.85156 0.73828-1.3594 0.50391-3.0977-1.2227-5.4141 0.54297-6.9453 1.8555l3.5352 2.0391c2.0312 1.2617 1.9844 4.0781 0.82031 5.8984l-4.457 6.2188c-0.19922 0.28125-0.51562 0.42969-0.83203 0.42969-0.80469 0.019532-1.3281-0.97266-0.83203-1.6211l4.4492-6.2109c0.48828-0.90625 0.71484-2.3828-0.20312-2.957l-9.4609-5.4609c-0.94141-0.51172-2.1172 0.42188-2.6406 1.25l-1.0508 2.3242c1.2734 0.73438 3.6328 2.0977 3.6328 2.0977 0.90625 0.48047 0.49219 1.9492-0.51172 1.9102-0.070312 0.17969-2.5469-1.293-3.9688-2.1367l-3.1133 6.875c0.12109 1.4453-0.046875 2.9141-0.56641 4.3203h8.5469c-0.625-0.37109-1.1133-0.66016-1.1758-0.67969-1.1562-0.64453-0.12109-2.4531 1.0234-1.7734 0 0 3.418 1.9727 4.25 2.4531h5.2773c0.56641 0 1.0234 0.45703 1.0234 1.0234 0 5.957-1.3398 11.688-3.9844 17.031-0.61719 1.1992-2.4141 0.29297-1.8359-0.90625 2.3477-4.7539 3.6133-9.8281 3.7578-15.102h-78.906c0.22266 8.2305 3.1602 15.965 8.5234 22.43 0.5625 0.63281 0.046876 1.707-0.78906 1.6758-0.29297 0-0.58594-0.125-0.78906-0.37109-5.8906-7.1055-9.0078-15.668-9.0078-24.762 0-0.56641 0.45703-1.0234 1.0234-1.0234h2.7812c0.67188-3.0156 4.2148-4.6602 7.4648-4.3398 1.9453-3.1367 7.7656-3.7422 10.668-1.3359 1.7578-3.0039 6.1406-3.8711 9.1602-2.3047 1.082-1.0586 2.4023-1.8359 3.832-2.3086 0.007813-0.007812 0.011719-0.015624 0.023438-0.023437-1.2891-0.34766-2.7109-0.40625-4.0781-0.14844-0.46484 0.089843-0.92969-0.15234-1.125-0.58203-1.6836-4.1367-10.066-4.4922-12.504-0.74609-0.45312 0.68359-1.6094 0.48438-1.8125-0.31641-1.332-5.2539-9.9297-6.0664-12.742-1.6562-2.0078 2.7578-2.4375 7.4531-1.0703 11.684 0.22266 0.64453-0.29297 1.3516-0.97266 1.3398-0.43359 0-0.83203-0.27344-0.97266-0.70703-1.582-4.8984-1.0508-10.203 1.3633-13.516 3.3828-5.1875 12.902-4.875 15.719 0.72266 3.7617-3.5 11.984-2.7461 14.488 1.6523 2.6758-0.32813 5.3438 0.32812 7.3398 1.7695 2.7695 0.078125 5.4961 1.2383 7.2969 3.6641 0.66016 0.83594 1.1641 1.7539 1.5234 2.7227 0.30859 0.57812 0.47266 1.3867 0.53906 2.2031 0.082031 0.66016 0.089843 1.3281 0.035156 2-0.003906 0.074219-0.003906 0.16797-0.007813 0.23047h13.141 0.74219c0.67188-1.5312 0.86719-3.0117 0.75391-4.4023-0.007812-0.054688-0.015625-0.10938-0.007812-0.17188-0.71484-6.9375-9.9922-11.254-15.594-4.9414-0.37109 0.42578-1.0234 0.46875-1.4453 0.097656-0.42578-0.37109-0.46875-1.0195-0.097656-1.4453 2.082-2.3867 5.0938-3.7539 8.2578-3.7539 4.6836-0.16016 8.5391 3.0117 10.156 7.0508l3.9062-8.6211c1.0273-1.9531 3.4531-3.3594 5.5195-2.2461l1.7617 1.0195c-3.0039-7.6914 2.6641-11.859 2.7305-11.906 0.47266-0.35547 1.2188-0.18359 1.4883 0.34375 2.2148 4.1289 2.0781 7.8906 1.2539 10.645 1.8281-0.92578 4.1445-1.4648 6.5469-0.36328 0.51172 0.23438 0.73828 0.84375 0.50391 1.3594zm-54.559 17.336h12.855c0.007812-0.054687 0.019531-0.10547 0.023437-0.16016 0.046875-0.48828 0.0625-0.96094 0.039063-1.4141-0.015625-0.25-0.066406-0.49219-0.10547-0.73828-0.023437-0.16016-0.046875-0.32422-0.082031-0.48047-0.082032-0.35547-0.18359-0.70312-0.3125-1.0391-2.3125-6.1211-12.074-7.1836-14.738 0.29297-0.40234 1.2656-2.3906 0.58984-1.9414-0.66016 0.23828-0.77344 0.58203-1.4727 0.98828-2.1172-2.4297-0.9375-5.3555-0.38281-6.5078 2.6992-0.10938 0.375-0.42188 0.65625-0.80859 0.72266-0.38281 0.0625-0.77734-0.089844-1.0039-0.40625-1.668-2.582-7.5156-2.3242-8.6836 0.5-0.4375 0.96484-1.5195 0.42578-2.332 0.46875-1.5898 0-3.8164 0.74609-4.5 2.3359h20.656zm44.59-16.711c1.043-1.8203 2.4375-5.4961 0.45703-10.082-1.2891 1.4727-3.1992 4.832-0.45703 10.082zm-23.922 7.8438c0.054687 0.5 0.51172 0.89844 1.0156 0.89453 0.67578 0.007813 1.3047-0.97656 1.9531-0.83203 1.3047 0.28125 1.7461-1.7109 0.4375-2-0.67969-0.14453-1.3242 0.015625-1.8594 0.25781-0.32422-0.71484-1.6992-1.0859-1.9688-0.9375-1.3164 0.19141-1.1055 2.2109 0.22266 2.0234 0.003906 0 0.14062 0.10938 0.19922 0.59375zm-16.512 1.582c-0.27344-0.15625-1.6406 0.22266-1.9688 0.9375-0.52734-0.24219-1.1719-0.40234-1.8594-0.25781-1.293 0.26172-0.86719 2.3086 0.4375 2 0.64844-0.14844 1.2773 0.84375 1.9531 0.83594 1.0391-0.015625 0.92188-0.98438 1.207-1.4805 1.2422 0.058594 1.5117-1.8164 0.23047-2.0352zm11.578-14.082c-0.074219-0.18359-1.8164-4.5352 0.56641-8.0508 1.8438-2.7305 5.5078-4.1211 11.078-4.0469 0.55859 0.003906 1.0117 0.45703 1.0156 1.0156 0.03125 7.3203-2.2969 12.148-8.375 12.328-2.0156 0-3.6133-0.64063-3.7227-0.68359-0.042969-0.019532-0.074219-0.050782-0.11328-0.074219-0.039063-0.023437-0.078125-0.046875-0.11328-0.078125-0.14844-0.11328-0.26953-0.24609-0.33594-0.41016zm1.4609-2.3516 2.8984-2.8984c0.92188-0.95312 2.4023 0.51953 1.4492 1.4492l-2.8984 2.8984c4.6523 0.86328 7.7383-2.7734 7.6914-9.1367-6.3672-0.050781-10.004 3.0391-9.1406 7.6875zm-27.172-10.164c0.28125-0.49219 0.91016-0.65234 1.3984-0.375l14.262 8.2344c0.48828 0.28125 0.65625 0.91016 0.375 1.3984-1.6094 2.8516-4.7656 4.6484-8.0312 4.6328-6.8789 0.21484-11.664-8.0352-8.0039-13.891zm13.684 9.082-12.363-7.1367c-3.0586 7.6406 7.2812 13.605 12.363 7.1367zm-9.2773-1.7188c1.8477-0.13672 0.86719-2.8984-0.65625-1.8281-0.74609 0.57031-0.26562 1.8633 0.65625 1.8281zm3.7461 2.2266c1.8477-0.13672 0.86719-2.8984-0.65625-1.8281-0.74609 0.57031-0.26953 1.8633 0.65625 1.8281z"></path></g>        </g></svg></svg></g></g><defs><clipPath id="SvgjsClipPath1690"><rect width="1000" height="1000" x="0" y="0" rx="250" ry="250"></rect></clipPath></defs></svg>